<svg xmlns="http://www.w3.org/2000/svg" width="6.03" height="9" viewBox="0 0 6.03 9">
  <defs>
    <style>
      .cls-1 {
        fill: #fff;
        fill-rule: evenodd;
      }
    </style>
  </defs>
  <path id="Forma_1_копия_11" data-name="Forma 1 копия 11" class="cls-1" d="M1777.04,5238.94l4.41-4.32a0.187,0.187,0,0,0,0-.26l-4.41-4.31a0.2,0.2,0,0,0-.14-0.06,0.176,0.176,0,0,0-.13.06l-1.22,1.19a0.19,0.19,0,0,0-.05.13,0.235,0.235,0,0,0,.05.13l3.07,2.99-3.07,3a0.187,0.187,0,0,0,0,.26l1.22,1.19A0.2,0.2,0,0,0,1777.04,5238.94Z" transform="translate(-1775.5 -5230)"/>
</svg>
