<svg xmlns="http://www.w3.org/2000/svg" width="6.03" height="9" viewBox="0 0 6.03 9">
  <defs>
    <style>
      .cls-1 {
        fill: #383838;
        fill-rule: evenodd;
      }
    </style>
  </defs>
  <path id="Forma_1_копия_10" data-name="Forma 1 копия 10" class="cls-1" d="M1212.54,4211.84l4.41-4.31a0.187,0.187,0,0,0,0-.26l-4.41-4.32a0.239,0.239,0,0,0-.14-0.05,0.211,0.211,0,0,0-.13.05l-1.22,1.19a0.194,0.194,0,0,0,0,.26l3.07,3-3.07,2.99a0.187,0.187,0,0,0,0,.26l1.22,1.19A0.2,0.2,0,0,0,1212.54,4211.84Z" transform="translate(-1211 -4202.91)"/>
</svg>
